<?xml version="1.0" encoding="utf-8"?>
<!-- Generator: Adobe Illustrator 21.0.0, SVG Export Plug-In . SVG Version: 6.00 Build 0)  -->
<svg xmlns:xlink="http://www.w3.org/1999/xlink" version="1.1" id="Layer_1" xmlns="http://www.w3.org/2000/svg" x="0px" y="0px"
	 viewBox="0 0 500 259" style="enable-background:new 0 0 500 259;" xml:space="preserve">
<style type="text/css">
	.st0{clip-path:url(#SVGID_2_);fill:url(#SVGID_3_);}
	.st1{opacity:0.35;clip-path:url(#SVGID_2_);fill:#FFFFFF;}
</style>
<g>
	<defs>
		<path id="SVGID_1_" d="M0,0v188.6v0.4v70c0,0,65.5-66.7,205.5-44.8S455,234.2,500,189V0H0z"/>
	</defs>
	<clipPath id="SVGID_2_">
		<use xlink:href="#SVGID_1_"  style="overflow:visible;"/>
	</clipPath>
	<linearGradient id="SVGID_3_" gradientUnits="userSpaceOnUse" x1="-10.773" y1="232.5367" x2="461.5071" y2="-13.1686">
		<stop  offset="0" style="stop-color:#20B0A4"/>
		<stop  offset="1" style="stop-color:#38EF7D"/>
	</linearGradient>
	<path class="st0" d="M0,0v188.6v0.4v70c0,0,65.5-66.7,205.5-44.8S455,234.2,500,189V0H0z"/>
	<path class="st1" d="M556,253c0,0-39-63-194-65s-245,78-301,52s-109-56-213-59c27,155,118,149,278,133S556,253,556,253z"/>
</g>
</svg>
